<svg
  width="56"
  height="48"
  viewBox="0 0 56 48"
  fill="none"
  xmlns="http://www.w3.org/2000/svg"
>
  <g clip-path="url(#clip0_2_3632)">
    <path
      fill-rule="evenodd"
      clip-rule="evenodd"
      d="M39.4158 14.6181C39.6083 14.5449 39.7818 14.479 39.9243 14.4345C43.2272 13.4299 45.1025 18.6948 41.7875 19.6995C38.2425 20.7931 34.2621 21.2509 32.1085 17.3468C31.0196 15.3756 31.0801 13.2773 31.9149 11.5223C31.9391 11.4714 31.927 11.4206 31.8907 11.3824C30.5477 10.1234 29.7492 8.27942 29.8339 6.02847C30.0033 1.15779 34.4798 -0.38099 38.4482 0.0768283C41.8722 0.471061 40.9043 6.00304 37.4924 5.60881C36.6092 5.50707 35.0364 5.34174 35.1695 6.5626C35.3136 7.85558 36.0684 7.81663 36.8215 7.77777C37.0166 7.76771 37.2115 7.75765 37.3956 7.77073C40.0694 7.96149 40.2509 12.1454 37.8554 12.9721C37.7883 12.9951 37.7111 13.0188 37.6281 13.0442C36.9332 13.2571 35.8301 13.5951 36.8028 14.7652C37.3359 15.4086 38.562 14.9426 39.4158 14.6181ZM31.1943 19.1931C29.5535 18.9268 26.6853 17.8995 26.1627 17.4049C26.0047 17.2654 25.9803 17.0371 26.1383 16.8976C26.2234 16.8342 27.7183 15.325 28.1315 14.4118C29.7723 10.7847 28.7392 6.02874 24.8136 4.77317C21.3498 3.65712 16.4519 5.99069 16.5126 10.0998C16.5361 11.5611 16.8013 13.0224 17.0683 14.4939C17.2162 15.3083 17.3645 16.126 17.4728 16.9483C17.6113 17.9836 17.6387 18.9609 17.6666 19.9595C17.7 21.1507 17.7341 22.3722 17.9589 23.7588C18.518 27.2719 23.2822 25.9909 23.1485 22.5793C23.1364 22.3764 23.343 22.2496 23.5131 22.3637C25.4213 23.67 27.6576 24.1139 29.8817 24.4564C33.2604 24.989 34.4636 19.7258 31.1943 19.1931ZM22.2006 12.9787C21.5807 12.9787 21.131 11.1398 21.4835 9.82079C21.7022 9.03448 22.9176 8.61596 23.2458 9.44032C23.5739 10.29 23.2944 12.9914 22.2006 12.9787ZM11.808 26.7747C2.94568 31.9085 5.2512 14.7268 11.4012 18.9988C15.6306 21.9468 17.9947 17.0073 14.9504 14.5902C12.2201 12.4385 7.56422 11.7732 4.62975 13.7633C1.80149 15.685 0.27659 19.8234 0.030428 23.2423C-0.253605 27.2097 1.46352 30.6409 4.65079 32.7082C8.09937 34.9416 11.5375 34.2891 14.6508 31.9348C17.6462 29.6622 14.7303 25.0777 11.808 26.7747ZM52.1214 34.9809C50.7659 36.2408 47.2319 37.806 46.5542 35.8972C46.0038 34.3368 47.1694 34.1274 48.2491 33.9335C48.499 33.8887 48.7443 33.8445 48.9626 33.7847C51.7946 32.9957 51.5162 27.8037 48.4301 28.0201C48.1581 28.037 47.7477 28.1435 47.2713 28.2671C45.6066 28.6989 43.1359 29.3398 42.9477 27.1038C42.754 24.7241 46.651 24.9023 48.188 25.1313C51.5888 25.6276 51.6978 19.3921 48.2486 19.5067C43.6617 19.6594 36.969 21.0846 37.5984 27.371C37.8283 29.7253 38.9538 32.2322 41.0355 33.3139C41.1202 33.3521 41.1686 33.4539 41.1444 33.5557C40.7571 35.1591 41.0113 36.8898 41.8221 38.3659C44.6178 43.4561 50.7901 42.0563 54.7718 39.6512C57.749 37.8569 54.6992 32.5758 52.1214 34.9809ZM27.2306 29.2725C27.2339 29.2701 27.237 29.2677 27.24 29.2655C33.0537 21.177 41.309 30.8756 38.1664 45.1509C37.0423 49.5374 33.1504 48.295 33.0416 45.2142C32.9921 43.9079 33.224 42.9027 33.4608 41.8762C33.5711 41.3985 33.6824 40.9161 33.7668 40.3967C34.1052 38.2541 34.0448 36.8215 33.9965 36.1749C33.6218 31.2686 28.7145 31.1798 29.0046 35.4016C29.1376 37.3159 29.053 39.0401 28.6179 40.8277C27.7476 44.4409 22.5382 43.5788 23.1425 39.8769L23.158 39.7837C23.4392 38.0922 23.9328 35.1237 23.5293 33.8168C23.3118 33.1322 22.7799 32.4096 22.1514 32.4223C21.8009 32.435 21.535 32.6758 21.4383 32.7646C19.8458 34.2863 19.9858 39.4426 20.0726 42.6423C20.082 42.9881 20.0908 43.3111 20.0967 43.6041C20.1692 47.6737 17.0992 47.0779 16.0718 46.051C13.5094 43.5154 15.3708 26.3623 22.647 26.3623C24.8656 26.3623 25.9705 28.2263 26.42 28.9846C26.5166 29.1475 26.5829 29.2594 26.6235 29.2908C26.9152 29.5111 27.1393 29.3416 27.2306 29.2725Z"
      fill="black"
    />
  </g>
  <defs>
    <clipPath id="clip0_2_3632">
      <rect width="56" height="48" fill="black" />
    </clipPath>
  </defs>
</svg> 